<svg xmlns="http://www.w3.org/2000/svg" width="1615" height="717" fill="none"><g clip-path="url(#a)"><path fill="#fff" fill-opacity=".01" d="M474.847 218.388h665.307v280.129H474.847z"/><path fill="#253858" d="M815.346 272.083h24.792v122.532c0 32.309-14.75 54.865-48.956 54.865-12.867 0-22.909-2.134-29.814-4.572v-23.47c7.532 3.048 16.633 4.572 25.734 4.572 21.026 0 28.244-12.192 28.244-29.871V272.083zm70.298-9.449c9.728 0 16.632 5.791 16.632 16.154 0 10.059-6.904 16.155-16.632 16.155-9.729 0-16.633-5.791-16.633-16.155 0-10.058 6.904-16.154 16.633-16.154zm-12.239 51.512h23.85v134.115h-23.85V314.146zm82.847 134.115h-23.223V314.146h23.223v23.47c8.159-15.85 21.968-27.128 48.958-25.604v22.556c-30.442-3.048-48.958 5.791-48.958 34.443v79.25zm160.368-24.08c-8.79 17.679-25.42 26.823-46.76 26.823-36.72 0-55.24-30.176-55.24-69.801 0-37.796 19.46-69.8 58.06-69.8 20.09 0 35.78 8.839 43.94 26.213v-23.47h23.85v134.115h-23.85v-24.08zm-40.49 5.487c21.34 0 40.17-13.107 40.17-42.978v-10.668c0-29.871-17.26-42.978-37.66-42.978-26.67 0-40.48 17.069-40.48 48.159.31 32.31 13.49 48.465 37.97 48.465z"/><path fill="#2684FF" d="M690.756 244.65H582.173c0 26.214 21.968 47.55 48.957 47.55h20.085v18.593c0 26.213 21.967 47.55 48.956 47.55V253.794c0-5.181-4.08-9.144-9.415-9.144z"/><path fill="url(#b)" d="M637.093 297.077H528.51c0 26.213 21.968 47.549 48.957 47.549h20.084v18.898c0 26.214 21.968 47.55 48.957 47.55V306.221c0-4.877-4.08-9.144-9.415-9.144z"/><path fill="url(#c)" d="M583.43 349.808H474.847c0 26.213 21.967 47.55 48.956 47.55h20.085v18.593c0 26.213 21.968 47.55 48.956 47.55V358.952c0-5.181-4.393-9.144-9.414-9.144z"/></g><defs><linearGradient id="b" x1="644.198" x2="599.418" y1="297.34" y2="344.885" gradientUnits="userSpaceOnUse"><stop offset=".176" stop-color="#0052CC"/><stop offset="1" stop-color="#2684FF"/></linearGradient><linearGradient id="c" x1="593.552" x2="541.689" y1="350.159" y2="402.113" gradientUnits="userSpaceOnUse"><stop offset=".176" stop-color="#0052CC"/><stop offset="1" stop-color="#2684FF"/></linearGradient><clipPath id="a"><path fill="#fff" d="M474.847 218.388h665.307v280.129H474.847z"/></clipPath></defs></svg>